<svg xmlns="http://www.w3.org/2000/svg" viewBox="0 0 100 13.28987">
    <defs>
        <clipPath id="helloguy">
            <g>
                <path d="
                                M0,.30196H3.9091V4.70834h3.65993V.30196h3.90857V12.98791h-3.90857V7.95967H3.9091v5.02824H0V.30196Z 
                                M12.59251,.30196h10.50045V3.55382h-6.59135v1.58106h5.98744v3.02064h-5.98744v1.58106h6.78668v3.25133H12.59251V.30196Z 
                                M24.20841,.30196h3.9091V9.73658h5.61421v3.25133h-9.52331V.30196Z 
                                M34.51037,.30196h3.9091V9.73658h5.61421v3.25133h-9.52331V.30196Z 
                                M50.87051,0c3.85578,0,6.43193,2.772,6.43193,6.6452s-2.57615,6.64467-6.43193,6.64467c-3.85525,0-6.4314-2.77147-6.4314-6.64467s2.57615-6.6452,6.4314-6.6452Zm0,10.12722c.99456,0,2.52336-.65723,2.52336-3.48203,0-2.82532-1.5288-3.48255-2.52336-3.48255-.99509,0-2.52283,.65723-2.52283,3.48255,0,2.82479,1.52774,3.48203,2.52283,3.48203Z 
                                M71.51032,11.69086c-.86998,1.11967-2.22035,1.59901-3.60661,1.59901-3.74914,0-6.05817-2.91348-6.05817-6.52061,0-4.83239,3.39334-6.76926,6.2535-6.76926,3.23391,0,5.27688,1.75896,5.84596,4.74423h-3.74914c-.14253-.92435-.92382-1.58159-1.84765-1.58159-2.68279,0-2.5941,2.82479-2.5941,3.69582,0,1.19041,.47933,3.26875,2.86016,3.26875,.90693,0,1.83076-.46191,2.02608-1.40368h-1.72412v-2.71815h5.1882v6.98253h-2.46951l-.12458-1.29705Z 
                                M86.66209,8.08425c0,3.51792-1.90149,5.20562-5.77416,5.20562-3.87373,0-5.79211-1.68769-5.79211-5.20562V.30196h3.90857V7.21375c0,1.29705,0,2.91348,1.90149,2.91348,1.84765,0,1.84765-1.61643,1.84765-2.91348V.30196h3.90857v7.78229Z 
                                M91.54305,8.31494L87.08336,.30196h4.31716l2.11477,4.67297,2.20345-4.67297h4.28126l-4.54838,8.01299v4.67297h-3.90857v-4.67297Z
                               " />
            </g>
        </clipPath>
        <clipPath id="rectangle">
            <rect width="100" height="100" />
        </clipPath>
    </defs>
    <g fill-opacity=".5" fill="#ffffff">
        <path d="
                                M0,.30196H3.9091V4.70834h3.65993V.30196h3.90857V12.98791h-3.90857V7.95967H3.9091v5.02824H0V.30196Z 
                                M12.59251,.30196h10.50045V3.55382h-6.59135v1.58106h5.98744v3.02064h-5.98744v1.58106h6.78668v3.25133H12.59251V.30196Z 
                                M24.20841,.30196h3.9091V9.73658h5.61421v3.25133h-9.52331V.30196Z 
                                M34.51037,.30196h3.9091V9.73658h5.61421v3.25133h-9.52331V.30196Z 
                                M50.87051,0c3.85578,0,6.43193,2.772,6.43193,6.6452s-2.57615,6.64467-6.43193,6.64467c-3.85525,0-6.4314-2.77147-6.4314-6.64467s2.57615-6.6452,6.4314-6.6452Zm0,10.12722c.99456,0,2.52336-.65723,2.52336-3.48203,0-2.82532-1.5288-3.48255-2.52336-3.48255-.99509,0-2.52283,.65723-2.52283,3.48255,0,2.82479,1.52774,3.48203,2.52283,3.48203Z 
                                M71.51032,11.69086c-.86998,1.11967-2.22035,1.59901-3.60661,1.59901-3.74914,0-6.05817-2.91348-6.05817-6.52061,0-4.83239,3.39334-6.76926,6.2535-6.76926,3.23391,0,5.27688,1.75896,5.84596,4.74423h-3.74914c-.14253-.92435-.92382-1.58159-1.84765-1.58159-2.68279,0-2.5941,2.82479-2.5941,3.69582,0,1.19041,.47933,3.26875,2.86016,3.26875,.90693,0,1.83076-.46191,2.02608-1.40368h-1.72412v-2.71815h5.1882v6.98253h-2.46951l-.12458-1.29705Z 
                                M86.66209,8.08425c0,3.51792-1.90149,5.20562-5.77416,5.20562-3.87373,0-5.79211-1.68769-5.79211-5.20562V.30196h3.90857V7.21375c0,1.29705,0,2.91348,1.90149,2.91348,1.84765,0,1.84765-1.61643,1.84765-2.91348V.30196h3.90857v7.78229Z 
                                M91.54305,8.31494L87.08336,.30196h4.31716l2.11477,4.67297,2.20345-4.67297h4.28126l-4.54838,8.01299v4.67297h-3.90857v-4.67297Z
                                            " />
    </g>
</svg>