<?xml version="1.0" encoding="UTF-8"?><svg id="Layer_1" xmlns="http://www.w3.org/2000/svg" viewBox="0 0 723.59 89.76"><defs><style>.cls-1{fill:rgba(255,255,255,.5);}</style></defs><path class="cls-1" d="M0,2.04H26.4V31.8h24.72V2.04h26.4V87.72h-26.4V53.76H26.4v33.96H0V2.04Z"/><path class="cls-1" d="M91.08,2.04h70.92V24h-44.52v10.68h40.44v20.4h-40.44v10.68h45.84v21.96H91.08V2.04Z"/><path class="cls-1" d="M175.56,2.04h26.4v63.72h37.92v21.96h-64.32V2.04Z"/><path class="cls-1" d="M251.16,2.04h26.4v63.72h37.92v21.96h-64.32V2.04Z"/><path class="cls-1" d="M367.67,0c26.04,0,43.44,18.72,43.44,44.88s-17.4,44.88-43.44,44.88-43.44-18.72-43.44-44.88S341.63,0,367.67,0Zm0,68.4c6.72,0,17.04-4.44,17.04-23.52s-10.32-23.52-17.04-23.52-17.04,4.44-17.04,23.52,10.32,23.52,17.04,23.52Z"/><path class="cls-1" d="M525.11,78.96c-5.88,7.56-15,10.8-24.36,10.8-25.32,0-40.92-19.68-40.92-44.04,0-32.64,22.92-45.72,42.24-45.72,21.84,0,35.64,11.88,39.48,32.04h-25.32c-.96-6.24-6.24-10.68-12.48-10.68-18.12,0-17.52,19.08-17.52,24.96,0,8.04,3.24,22.08,19.32,22.08,6.12,0,12.36-3.12,13.68-9.48h-11.64v-18.36h35.04v47.16h-16.68l-.84-8.76Z"/><path class="cls-1" d="M633.47,54.6c0,23.76-12.84,35.16-39,35.16s-39.12-11.4-39.12-35.16V2.04h26.4V48.72c0,8.76,0,19.68,12.84,19.68s12.48-10.92,12.48-19.68V2.04h26.4V54.6Z"/><path class="cls-1" d="M666.47,56.16l-30.12-54.12h29.16l14.28,31.56,14.88-31.56h28.92l-30.72,54.12v31.56h-26.4v-31.56Z"/></svg>