<?xml version="1.0" encoding="UTF-8"?><svg id="Layer_1" xmlns="http://www.w3.org/2000/svg" viewBox="0 0 1 1">
    <defs>
        <style>
            .cls-1 {
                fill: rgba(255, 0, 0, .5);
            }
        </style>
    </defs>
    <path d="
    M0,.4176H.0365v.0411h.0341v-.0411h.0365v.1184h-.0365v-.0469H.0365v.0469h-.0365v-.1184Z 
    M.1258,.4176h.098v.0303h-.0615v.0148h.0559v.0282h-.0559v.0148h.0633v.0303h-.0998v-.1184Z 
    M.2425,.4176h.0365v.088h.0524v.0303h-.0889v-.1184Z 
    M.347,.4176h.0365v.088h.0524v.0303h-.0889v-.1184Z 
    M.508,.4148c.036,0,.06,.0259,.06,.062s-.024,.062-.06,.062-.06-.0259-.06-.062,.024-.062,.06-.062Zm0,.0945c.0093,0,.0235-.0061,.0235-.0325s-.0143-.0325-.0235-.0325-.0235,.0061-.0235,.0325,.0143,.0325,.0235,.0325Z 
    M.7255,.5238c-.0081,.0104-.0207,.0149-.0337,.0149-.035,0-.0565-.0272-.0565-.0608,0-.0451,.0317-.0632,.0584-.0632,.0302,0,.0492,.0164,.0545,.0443h-.035c-.0013-.0086-.0086-.0148-.0172-.0148-.025,0-.0242,.0264-.0242,.0345,0,.0111,.0045,.0305,.0267,.0305,.0085,0,.0171-.0043,.0189-.0131h-.0161v-.0254h.0484v.0652h-.023l-.0012-.0121Z 
    M.8752,.4902c0,.0328-.0177,.0486-.0539,.0486s-.054-.0157-.054-.0486v-.0726h.0365v.0645c0,.0121,0,.0272,.0177,.0272,.0172,0,.0172-.0151,.0172-.0272v-.0645h.0365v.0726Z  
    M.9207,.4923l-.0416-.0748h.0403l.0197,.0436,.0206-.0436h.04l-.0424,.0748v.0436h-.0365v-.0436Z
    " />
</svg>