<?xml version="1.0" encoding="UTF-8"?><svg id="Layer_1" xmlns="http://www.w3.org/2000/svg" viewBox="0 0 1 1"><defs><style>.cls-1{fill:rgba(255,0,0,.5);}</style></defs><path class="cls-1" d="M0,.41758H.03647v.04111h.03415v-.04111h.03647v.11836h-.03647v-.04691H.03647v.04691h-.03647v-.11836Z"/><path class="cls-1" d="M.12583,.41758h.09797v.03034h-.0615v.01475h.05587v.02818h-.05587v.01475h.06333v.03034h-.0998v-.11836Z"/><path class="cls-1" d="M.24254,.41758h.03647v.08803h.05239v.03034h-.08886v-.11836Z"/><path class="cls-1" d="M.34698,.41758h.03647v.08803h.05239v.03034h-.08886v-.11836Z"/><path class="cls-1" d="M.50795,.41477c.03597,0,.06001,.02586,.06001,.062s-.02404,.062-.06001,.062-.06001-.02586-.06001-.062,.02404-.062,.06001-.062Zm0,.09449c.00928,0,.02354-.00613,.02354-.03249s-.01426-.03249-.02354-.03249c-.00928,0-.02354,.00613-.02354,.03249s.01426,.03249,.02354,.03249Z"/><path class="cls-1" d="M.72546,.52385c-.00812,.01045-.02072,.01492-.03365,.01492-.03498,0-.05653-.02719-.05653-.06084,0-.04509,.03166-.06316,.05835-.06316,.03017,0,.04924,.01641,.05454,.04426h-.03498c-.00133-.00862-.00862-.01475-.01724-.01475-.02503,0-.0242,.02636-.0242,.03448,0,.01111,.00448,.0305,.02669,.0305,.00845,0,.01707-.00431,.0189-.0131h-.01608v-.02536h.04841v.06515h-.02304l-.00116-.0121Z"/><path class="cls-1" d="M.87516,.49019c0,.03282-.01774,.04857-.05388,.04857s-.05404-.01575-.05404-.04857v-.07261h.03647v.06449c0,.0121,0,.02719,.01774,.02719,.01724,0,.01724-.01508,.01724-.02719v-.06449h.03647v.07261Z"/><path class="cls-1" d="M.92075,.49235l-.04161-.07476h.04028l.01973,.0436,.02056-.0436h.03995l-.04244,.07476v.0436h-.03647v-.0436Z"/></svg>